# Blender 4.5.4 LTS
# www.blender.org
mtllib F_LeftLegBear.mtl
o Bear_Low_Poly.001
v 0.057812 -0.456942 -0.933569
v -0.118892 0.042536 -0.115437
v -0.025801 -0.183319 -0.166310
v -0.073474 -0.054858 -0.173978
v -0.100450 -0.101952 -0.134263
v 0.050673 -0.309055 -0.127859
v -0.118211 -0.031996 -0.130144
v -0.085026 -0.228227 -0.117117
v -0.036149 -0.387198 -0.097427
v -0.139884 -0.115476 -0.047165
v -0.137493 -0.028131 -0.054377
v -0.147473 -0.193731 -0.028016
v -0.023053 -0.582207 -0.020259
v 0.078343 -0.476443 -0.030188
v -0.117443 -0.287289 -0.070887
v -0.132488 0.150031 -0.015396
v -0.138817 0.050364 0.014437
v 0.027057 -0.587626 -0.013690
v 0.139686 -0.343305 -0.012801
v -0.142904 -0.319409 0.002289
v -0.049136 -0.599073 0.024429
v 0.069551 -0.594176 0.043276
v -0.139852 -0.189151 0.070447
v 0.097891 -0.486995 0.058521
v -0.094683 -0.477550 0.063441
v -0.131641 -0.316587 0.080961
v -0.121459 0.128092 0.091364
v 0.109397 -0.381866 0.102590
v -0.075910 -0.595318 0.099424
v 0.093934 -0.583233 0.099886
v -0.136743 -0.046566 0.062898
v -0.072856 -0.479120 0.112933
v 0.106203 -0.592619 0.216451
v 0.133251 -0.263372 0.143206
v 0.050922 -0.509510 0.124174
v -0.130420 0.042746 0.086986
v 0.068468 -0.556529 0.136428
v -0.076516 -0.269803 0.153266
v -0.069099 -0.557675 0.131767
v -0.102950 0.040045 0.144953
v 0.050171 -0.420303 0.139019
v -0.016804 -0.610947 0.259224
v -0.054898 -0.084912 0.167287
v -0.016527 -0.530797 0.139441
v -0.016419 -0.383312 0.155149
v -0.068849 -0.597979 0.220645
v -0.011605 -0.180066 0.190424
v 0.057650 -0.239369 0.191395
v 0.072635 -0.106390 0.188195
v -0.030878 0.049893 0.207236
v 0.065844 -0.600248 0.253210
v 0.049798 -0.613176 0.253596
v 0.004309 -0.599058 0.253709
v 0.128546 -0.266527 -0.090808
v 0.156517 -0.299174 -0.055309
v 0.085416 -0.095458 0.192534
v 0.153389 -0.222281 0.145825
v -0.072043 0.154378 0.177667
v -0.067675 0.150504 0.186643
v -0.126435 0.178462 -0.001702
v -0.114809 0.122095 -0.106791
v -0.010284 0.068854 0.218412
v -0.108650 0.189105 0.108805
v 0.071755 -0.071864 0.196617
v 0.007531 0.037527 0.211523
v -0.121690 0.189126 0.049692
v 0.035543 -0.010378 0.204483
v 0.005161 -0.105245 -0.199045
v 0.048096 -0.167266 -0.177901
v 0.058218 -0.453780 -0.934307
v 0.165253 -0.294082 -0.001407
v 0.159218 -0.296406 -0.035300
v 0.160099 -0.241123 0.123510
v 0.159023 -0.251339 0.090015
v 0.167812 -0.282642 0.042241
v 0.058610 -0.454270 -0.933904
v -0.119739 0.191300 0.064633
v -0.059235 0.138952 0.192588
v -0.117256 0.131229 -0.092319
v -0.127150 0.166314 -0.038964
v -0.098085 0.077906 -0.154650
v -0.066173 0.010070 -0.199812
v -0.020893 -0.062255 -0.196880
v -0.064481 0.006541 -0.202014
v 0.135406 -0.185429 0.167423
v 0.094375 -0.114013 0.181230
v 0.075957 -0.208046 -0.165675
v 0.105607 -0.245787 -0.136822
v 0.180801 -0.108301 -0.009926
v 0.177932 -0.109405 -0.026034
v 0.178351 -0.083130 0.049445
v 0.177839 -0.087986 0.033525
v 0.119152 0.026539 0.087930
v 0.136362 -0.002685 0.084192
v 0.097371 0.064196 0.094550
v 0.105838 0.049307 0.091276
v 0.046529 0.093842 -0.053135
v 0.041826 0.110517 -0.027776
v 0.042166 0.116291 -0.010066
v 0.050619 0.121349 0.042456
v 0.068018 0.104844 0.075185
v 0.070808 0.036257 -0.104224
v 0.055641 0.068498 -0.082759
v 0.175161 -0.074175 0.060051
v 0.104711 -0.018550 -0.103859
v 0.092328 0.001883 -0.102830
v 0.071612 0.034580 -0.105271
v 0.142855 -0.013899 0.082251
v 0.147114 -0.022717 0.076878
v 0.176648 -0.110721 -0.035544
v 0.163354 -0.095204 -0.052416
v 0.152451 -0.085347 -0.074286
v 0.138360 -0.067410 -0.087999
v 0.125118 -0.048028 -0.093810
v 0.182017 -0.102863 0.010819
v 0.045349 0.122393 0.021462
v 0.044422 0.121359 0.014361
v 0.074105 0.097513 0.082277
v 0.070094 0.103003 0.079451
v 0.047692 0.089501 -0.060013
v 0.166615 -0.056660 0.070316
vn -0.9073 -0.1305 0.3997
vn -0.9314 0.0279 0.3629
vn -0.9679 -0.2058 -0.1444
vn -0.9876 0.0050 -0.1569
vn -0.7840 -0.1881 -0.5916
vn -0.9720 -0.0211 -0.2342
vn -0.4392 -0.1635 0.8834
vn -0.8044 -0.0494 0.5920
vn -0.5404 -0.0720 0.8383
vn -0.0042 0.7098 0.7044
vn -0.8139 -0.0822 0.5751
vn -0.3801 -0.3553 0.8540
vn -0.8032 0.3434 0.4867
vn 0.5245 0.6664 0.5299
vn 0.4990 0.0969 0.8611
vn -0.0804 -0.0668 0.9945
vn 0.8254 -0.3153 0.4682
vn 0.6678 -0.3495 0.6572
vn 0.3751 -0.1933 0.9066
vn 0.6638 -0.3010 -0.6847
vn 0.6947 -0.2309 -0.6813
vn 0.2423 -0.3945 -0.8864
vn -0.9619 -0.2468 0.1179
vn -0.3215 -0.2806 -0.9044
vn -0.5998 -0.2831 -0.7484
vn -0.3112 -0.6166 -0.7232
vn -0.5112 -0.7970 -0.3218
vn -0.7738 -0.1924 -0.6035
vn 0.5617 -0.7648 -0.3156
vn 0.2890 -0.7312 -0.6179
vn 0.1862 -0.7493 0.6355
vn 0.4713 0.2169 0.8549
vn 0.9771 -0.1795 0.1141
vn 0.9491 -0.3146 -0.0184
vn 0.4339 -0.2196 -0.8738
vn 0.7448 -0.3686 -0.5562
vn 0.8327 -0.2802 -0.4776
vn 0.4219 -0.1166 0.8991
vn 0.0007 -0.1489 0.9888
vn 0.6896 0.1083 0.7161
vn -0.9561 -0.0259 0.2918
vn -0.9986 0.0519 0.0098
vn -0.9579 0.0398 0.2843
vn -0.5687 -0.0876 0.8179
vn 0.1490 -0.1717 0.9738
vn -0.2337 -0.0151 0.9722
vn -0.1487 0.0612 -0.9870
vn 0.0388 0.0553 -0.9977
vn -0.6193 -0.1954 -0.7604
vn -0.7813 -0.6231 -0.0348
vn -0.7444 -0.0985 0.6604
vn -0.3713 0.3882 -0.8434
vn -0.9321 0.0353 -0.3605
vn -0.3827 0.4873 -0.7849
vn -0.0887 -0.1558 0.9838
vn 0.9230 -0.0333 0.3834
vn -0.5049 0.8366 -0.2127
vn -0.5572 0.7390 -0.3787
vn -0.9938 0.1037 -0.0399
vn -0.8597 -0.0389 -0.5094
vn -0.9481 0.0937 0.3040
vn -0.3311 -0.3392 -0.8805
vn 0.9140 -0.4049 -0.0246
vn -0.9711 0.0011 -0.2387
vn 0.1697 0.2088 0.9631
vn 0.3517 0.0302 0.9356
vn -0.4919 0.6938 -0.5260
vn 0.9817 -0.1091 0.1564
vn 0.8819 -0.3741 0.2868
vn 0.0551 0.0307 -0.9980
vn 0.9623 -0.2482 -0.1112
vn 0.9467 -0.3162 -0.0610
vn 0.7551 -0.2258 0.6155
vn -0.3314 0.7788 0.5326
vn -0.4302 0.8163 0.3854
vn 0.3057 0.0799 0.9488
vn 0.3109 0.0489 0.9492
vn 0.3011 -0.0900 -0.9494
vn 0.9550 -0.2631 0.1367
vn 0.5186 -0.2512 -0.8173
vn 0.6123 -0.1828 -0.7692
vn 0.5189 -0.3055 -0.7984
vn -0.5275 0.8475 0.0580
vn -0.5597 0.8196 -0.1228
vn 0.0109 0.3125 0.9498
vn -0.5138 0.5925 -0.6205
vn -0.2448 0.6320 0.7353
vn 0.6234 0.0315 0.7812
vn 0.7093 0.6609 0.2452
vn 0.6378 0.6209 -0.4557
vn 0.6186 0.7719 -0.1468
vn 0.9298 0.1294 -0.3446
vn 0.9838 0.1786 0.0168
vn 0.6777 0.7215 0.1422
vn 0.8792 0.2448 -0.4088
vn 0.8501 0.4674 0.2427
vn 0.5906 0.7232 -0.3579
vn 0.5458 0.7277 -0.4154
vn 0.8657 0.2214 -0.4490
vn 0.8109 0.5109 0.2853
vn 0.6010 0.6498 -0.4653
vn 0.7720 0.3764 -0.5122
vn 0.5911 0.7229 -0.3578
vn 0.6802 0.7329 -0.0159
vn 0.7747 0.2498 -0.5809
vn 0.6023 0.7530 -0.2650
vn 0.9110 0.3703 0.1813
vn 0.8786 0.4041 0.2544
vn 0.6288 0.7772 -0.0252
vn 0.8184 0.5376 0.2028
vn 0.9700 0.2136 -0.1165
vn 0.9791 0.1996 -0.0387
vn 0.9443 0.3228 0.0642
vn 0.8485 0.4814 0.2199
vn 0.6970 0.3642 -0.6177
vn 0.8727 0.4162 0.2554
vn 0.8502 0.4540 0.2664
vn 0.7394 0.3834 -0.5534
vn 0.7105 0.4521 -0.5392
vn 0.5761 0.7931 -0.1976
vn 0.9607 0.2212 -0.1677
vt 0.702928 0.917889
vt 0.658279 0.915785
vt 0.701600 0.888824
vt 0.804122 0.858688
vt 0.832667 0.827672
vt 0.835711 0.861984
vt 0.835706 0.321926
vt 0.868615 0.333148
vt 0.841593 0.373852
vt 0.377607 0.034548
vt 0.350507 0.034548
vt 0.371007 0.028233
vt 0.538745 0.305943
vt 0.505067 0.303152
vt 0.493809 0.276148
vt 0.686336 0.020536
vt 0.686218 0.001796
vt 0.712819 0.001802
vt 0.505610 0.938877
vt 0.466615 0.913781
vt 0.530304 0.923682
vt 0.959967 0.895195
vt 0.949513 0.911681
vt 0.936117 0.879548
vt 0.762715 0.909525
vt 0.860687 0.802176
vt 0.877362 0.830146
vt 0.310022 0.001806
vt 0.320980 0.018233
vt 0.214459 0.037068
vt 0.348471 0.987039
vt 0.352194 0.944250
vt 0.433686 0.968191
vt 0.332466 0.961543
vt 0.429816 0.944250
vt 0.108728 0.001801
vt 0.091807 0.006288
vt 0.086348 0.001801
vt 0.538040 0.965185
vt 0.557755 0.942141
vt 0.570891 0.949977
vt 0.572634 0.968998
vt 0.939334 0.511368
vt 0.930720 0.493114
vt 0.952461 0.473174
vt 0.961406 0.305340
vt 0.945864 0.275802
vt 0.961406 0.244285
vt 0.935500 0.926608
vt 0.582287 0.500994
vt 0.581087 0.494758
vt 0.589399 0.496438
vt 0.632079 0.873647
vt 0.610062 0.915114
vt 0.602585 0.872291
vt 0.576301 0.898694
vt 0.892268 0.370557
vt 0.891205 0.336874
vt 0.810053 0.893932
vt 0.407327 0.323776
vt 0.357254 0.308030
vt 0.383766 0.287970
vt 0.984251 0.593152
vt 0.970059 0.568055
vt 0.990154 0.568854
vt 0.357300 0.409530
vt 0.358740 0.377011
vt 0.380591 0.414838
vt 0.595796 0.608940
vt 0.553037 0.611693
vt 0.553037 0.592539
vt 0.793149 0.800045
vt 0.780069 0.836206
vt 0.767930 0.819850
vt 0.382931 0.362267
vt 0.821602 0.914223
vt 0.827535 0.889139
vt 0.869190 0.903860
vt 0.816049 0.809694
vt 0.794454 0.799050
vt 0.020949 0.574910
vt 0.009290 0.589748
vt 0.001795 0.590869
vt 0.747897 0.291190
vt 0.749202 0.277034
vt 0.756545 0.284541
vt 0.807728 0.832336
vt 0.894719 0.305466
vt 0.879568 0.421527
vt 0.835744 0.442264
vt 0.239368 0.002520
vt 0.479824 0.969151
vt 0.657869 0.879463
vt 0.898289 0.851333
vt 0.908108 0.878593
vt 0.863729 0.869853
vt 0.805769 0.921242
vt 0.376714 0.994907
vt 0.420980 0.988892
vt 0.304830 0.036178
vt 0.326858 0.019102
vt 0.346932 0.036178
vt 0.037659 0.001800
vt 0.049352 0.014198
vt 0.041693 0.041201
vt 0.992767 0.050393
vt 0.998104 0.018714
vt 0.998104 0.079682
vt 0.163597 0.001806
vt 0.180559 0.259267
vt 0.208109 0.270436
vt 0.180565 0.279857
vt 0.975833 0.523664
vt 0.987158 0.446147
vt 0.517341 0.527483
vt 0.515860 0.516497
vt 0.529671 0.522068
vt 0.494862 0.788611
vt 0.469752 0.758258
vt 0.517649 0.757219
vt 0.474786 0.882153
vt 0.746846 0.841894
vt 0.737608 0.867560
vt 0.732393 0.859379
vt 0.082332 0.001800
vt 0.395009 0.033439
vt 0.821892 0.934864
vt 0.001795 0.512888
vt 0.013961 0.532387
vt 0.897347 0.345864
vt 0.905323 0.355447
vt 0.897347 0.367830
vt 0.552937 0.928272
vt 0.542943 0.889250
vt 0.961361 0.553298
vt 0.998153 0.443325
vt 0.998153 0.493576
vt 0.988308 0.462495
vt 0.990167 0.369233
vt 0.972357 0.364366
vt 0.494710 0.253663
vt 0.538746 0.255807
vt 0.707443 0.071609
vt 0.707443 0.114827
vt 0.693254 0.103070
vt 0.255209 0.989432
vt 0.255063 0.976742
vt 0.272658 0.983622
vt 0.864676 0.466204
vt 0.453637 0.920731
vt 0.450314 0.910465
vt 0.861558 0.288514
vt 0.891793 0.281877
vt 0.580514 0.851089
vt 0.772955 0.878416
vt 0.331426 0.980125
vt 0.321112 0.963902
vt 0.318850 0.996908
vt 0.580733 0.925328
vt 0.693497 0.862687
vt 0.817790 0.404115
vt 0.539757 0.470154
vt 0.572971 0.504866
vt 0.548620 0.514439
vt 0.465692 0.803005
vt 0.508886 0.239631
vt 0.255362 0.996908
vt 0.766730 0.927924
vt 0.829557 0.519228
vt 0.805305 0.532906
vt 0.948039 0.527827
vt 0.454644 0.931011
vt 0.254475 0.960490
vt 0.297059 0.944579
vt 0.621859 0.936986
vt 0.623035 0.936760
vt 0.622883 0.936988
vt 0.906786 0.284055
vt 0.531723 0.913846
vt 0.829427 0.313267
vt 0.853275 0.292485
vt 0.750636 0.837202
vt 0.747018 0.310535
vt 0.857761 0.289170
vt 0.442994 0.895242
vt 0.461516 0.758066
vt 0.531391 0.919388
vt 0.441955 0.776108
vt 0.459768 0.950423
s 1
usemtl Bear_Tris_Material
f 26/1/1 23/2/2 20/3/3
f 11/4/4 5/5/5 10/6/6
f 50/7/7 40/8/8 43/9/9
f 53/10/10 46/11/11 42/12/12
f 39/13/13 46/14/11 53/15/10
f 37/16/14 35/17/15 44/18/16
f 28/19/17 34/20/18 41/21/19
f 88/22/20 54/23/21 6/24/22
f 20/3/3 25/25/23 26/1/1
f 3/26/24 8/27/25 5/5/5
f 13/28/26 21/29/27 15/30/28
f 21/31/27 22/32/29 42/33/12
f 18/34/30 22/32/29 21/31/27
f 22/32/29 52/35/31 42/33/12
f 53/36/10 52/37/31 51/38/32
f 24/39/33 35/40/15 37/41/14
f 30/42/34 24/39/33 37/41/14
f 87/43/35 88/44/20 6/45/22
f 14/46/36 24/47/33 30/48/34
f 55/49/37 6/24/22 54/23/21
f 56/50/38 49/51/39 86/52/40
f 10/53/6 31/54/41 11/55/4
f 31/54/41 17/56/42 11/55/4
f 31/57/41 40/8/8 36/58/43
f 25/25/23 20/3/3 21/59/27
f 38/60/44 48/61/45 47/62/46
f 84/63/47 83/64/48 4/65/49
f 35/66/15 41/67/19 44/68/16
f 29/69/50 32/70/51 25/71/23
f 82/72/52 2/73/53 81/74/54
f 45/75/55 48/61/45 38/60/44
f 44/68/16 41/67/19 45/75/55
f 22/76/29 18/77/30 14/78/36
f 4/79/49 82/72/52 84/80/47
f 3/26/24 5/5/5 4/79/49
f 33/81/56 51/82/32 52/83/31
f 10/53/6 23/2/2 31/54/41
f 60/84/57 80/85/58 16/86/59
f 7/87/60 11/4/4 2/73/53
f 27/88/61 36/58/43 40/8/8
f 43/9/9 31/57/41 23/89/2
f 23/89/2 38/90/44 43/9/9
f 13/28/26 15/30/28 9/91/62
f 28/19/17 24/39/33 19/92/63
f 12/93/64 20/3/3 23/2/2
f 15/94/28 20/95/3 12/96/64
f 5/5/5 7/87/60 4/79/49
f 29/97/50 25/25/23 21/59/27
f 29/98/50 42/33/12 46/99/11
f 11/100/4 7/101/60 5/102/5
f 29/103/50 39/104/13 32/105/51
f 8/106/25 3/107/24 15/108/28
f 3/109/24 9/91/62 15/30/28
f 44/110/16 32/111/51 39/112/13
f 21/31/27 42/33/12 29/98/50
f 3/113/24 6/45/22 9/114/62
f 62/115/65 50/116/7 65/117/66
f 47/118/46 49/119/39 43/120/9
f 34/20/18 48/121/45 41/21/19
f 10/53/6 12/93/64 23/2/2
f 79/122/67 16/123/59 80/124/58
f 8/27/25 12/96/64 10/6/6
f 46/125/11 39/104/13 29/103/50
f 52/126/31 53/10/10 42/12/12
f 41/67/19 48/61/45 45/75/55
f 22/76/29 14/78/36 30/127/34
f 22/128/29 30/129/34 33/81/56
f 74/130/68 73/131/69 34/132/18
f 27/133/61 16/134/59 17/56/42
f 4/79/49 7/87/60 2/73/53
f 15/94/28 12/96/64 8/27/25
f 44/68/16 45/75/55 38/60/44
f 68/135/70 4/65/49 83/64/48
f 39/136/13 37/137/14 44/138/16
f 13/139/26 6/45/22 18/140/30
f 51/141/32 37/142/14 39/13/13
f 53/15/10 51/141/32 39/13/13
f 24/39/33 28/19/17 35/40/15
f 33/143/56 30/144/34 37/145/14
f 72/146/71 71/147/72 19/148/63
f 38/90/44 23/89/2 26/149/1
f 73/150/69 57/151/73 34/20/18
f 31/57/41 43/9/9 40/8/8
f 58/152/74 63/153/75 27/88/61
f 2/154/53 17/56/42 16/134/59
f 2/73/53 11/4/4 17/155/42
f 13/156/26 18/34/30 21/31/27
f 41/21/19 35/40/15 28/19/17
f 24/157/33 14/158/36 19/148/63
f 17/56/42 36/159/43 27/133/61
f 21/59/27 20/3/3 15/160/28
f 47/161/46 43/9/9 38/90/44
f 9/114/62 6/45/22 13/139/26
f 43/162/9 64/163/76 67/164/77
f 48/165/45 49/119/39 47/118/46
f 37/142/14 51/141/32 33/166/56
f 22/128/29 33/81/56 52/83/31
f 19/148/63 55/167/37 72/146/71
f 36/159/43 17/56/42 31/54/41
f 10/6/6 5/5/5 8/27/25
f 14/78/36 18/77/30 6/24/22
f 25/25/23 32/168/51 26/1/1
f 26/149/1 32/169/51 38/90/44
f 38/90/44 32/169/51 44/170/16
f 3/113/24 68/135/70 69/171/78
f 28/19/17 74/172/68 34/20/18
f 19/148/63 75/173/79 28/174/17
f 1/175/80 70/176/81 76/177/82
f 67/164/77 50/116/7 43/162/9
f 27/88/61 63/153/75 77/178/83
f 27/133/61 66/179/84 16/134/59
f 50/7/7 62/180/65 78/181/85
f 2/73/53 79/122/67 61/182/86
f 16/86/59 66/183/84 60/84/57
f 40/8/8 78/181/85 59/184/87
f 40/8/8 58/152/74 27/88/61
f 2/73/53 61/182/86 81/74/54
f 49/51/39 56/50/38 64/163/76
f 34/20/18 85/185/88 48/121/45
f 48/165/45 86/186/40 49/119/39
f 3/113/24 87/43/35 6/45/22
f 62/180/65 118/181/89 78/181/85
f 102/72/90 116/187/91 118/181/89
f 54/23/21 110/49/92 55/49/37
f 74/130/68 91/131/93 73/131/69
f 78/181/85 119/184/94 59/184/87
f 88/22/20 111/23/95 54/23/21
f 64/163/76 93/164/96 67/164/77
f 61/182/86 97/122/97 120/182/98
f 87/43/35 112/44/99 88/44/20
f 65/117/66 95/115/100 62/115/65
f 81/74/54 120/182/98 103/74/101
f 68/135/70 114/171/102 69/171/78
f 79/122/67 98/124/103 97/122/97
f 58/152/74 119/184/94 101/152/104
f 69/171/78 113/43/105 87/43/35
f 80/85/58 99/84/106 98/85/103
f 85/185/88 104/151/107 121/185/108
f 58/152/74 100/153/109 63/153/75
f 86/186/40 121/188/108 109/186/110
f 75/173/79 89/147/111 115/173/112
f 82/72/52 103/74/101 102/72/90
f 74/172/68 115/189/112 92/172/113
f 57/151/73 91/150/93 104/151/107
f 67/164/77 96/117/114 65/117/66
f 83/64/48 105/135/115 68/135/70
f 64/163/76 108/50/116 94/163/117
f 83/64/48 107/63/118 106/64/119
f 77/178/83 100/153/109 116/178/91
f 82/72/52 107/80/118 84/80/47
f 66/179/84 116/187/91 117/179/120
f 86/52/40 108/50/116 56/50/38
f 60/84/57 117/183/120 99/84/106
f 72/146/71 110/167/92 90/146/121
f 71/147/72 90/146/121 89/147/111
f 55/49/37 14/78/36 6/24/22
f 4/79/49 2/73/53 82/72/52
f 68/135/70 3/113/24 4/65/49
f 43/162/9 49/51/39 64/163/76
f 19/148/63 14/158/36 55/167/37
f 28/19/17 75/189/79 74/172/68
f 19/148/63 71/147/72 75/173/79
f 67/164/77 65/117/66 50/116/7
f 27/133/61 77/187/83 66/179/84
f 2/73/53 16/123/59 79/122/67
f 40/8/8 50/7/7 78/181/85
f 40/8/8 59/184/87 58/152/74
f 34/20/18 57/151/73 85/185/88
f 48/165/45 85/188/88 86/186/40
f 3/113/24 69/171/78 87/43/35
f 62/180/65 95/180/100 118/181/89
f 90/146/121 110/167/92 111/23/95
f 111/23/95 112/22/99 113/43/105
f 114/171/102 105/135/115 106/64/119
f 111/23/95 113/43/105 114/171/102
f 89/147/111 90/146/121 111/23/95
f 92/130/113 115/189/112 89/147/111
f 104/151/107 91/150/93 92/130/113
f 109/52/110 121/188/108 104/151/107
f 94/163/117 108/50/116 109/52/110
f 93/164/96 94/163/117 109/52/110
f 109/52/110 104/151/107 92/130/113
f 92/130/113 89/147/111 111/23/95
f 111/23/95 114/171/102 106/64/119
f 106/64/119 107/63/118 102/72/90
f 102/72/90 103/74/101 120/182/98
f 97/122/97 98/124/103 99/84/106
f 102/72/90 120/182/98 97/122/97
f 111/23/95 106/64/119 102/72/90
f 109/52/110 92/130/113 111/23/95
f 96/117/114 93/164/96 109/52/110
f 118/181/89 95/180/100 96/117/114
f 101/152/104 119/184/94 118/181/89
f 116/187/91 100/153/109 101/152/104
f 99/84/106 117/183/120 116/187/91
f 102/72/90 97/122/97 99/84/106
f 109/52/110 111/23/95 102/72/90
f 118/181/89 96/117/114 109/52/110
f 116/187/91 101/152/104 118/181/89
f 102/72/90 99/84/106 116/187/91
f 118/181/89 109/52/110 102/72/90
f 54/23/21 111/23/95 110/49/92
f 74/130/68 92/130/113 91/131/93
f 78/181/85 118/181/89 119/184/94
f 88/22/20 112/22/99 111/23/95
f 64/163/76 94/163/117 93/164/96
f 61/182/86 79/122/67 97/122/97
f 87/43/35 113/43/105 112/44/99
f 65/117/66 96/117/114 95/115/100
f 81/74/54 61/182/86 120/182/98
f 68/135/70 105/135/115 114/171/102
f 79/122/67 80/124/58 98/124/103
f 58/152/74 59/184/87 119/184/94
f 69/171/78 114/171/102 113/43/105
f 80/85/58 60/84/57 99/84/106
f 85/185/88 57/151/73 104/151/107
f 58/152/74 101/152/104 100/153/109
f 86/186/40 85/188/88 121/188/108
f 75/173/79 71/147/72 89/147/111
f 82/72/52 81/74/54 103/74/101
f 74/172/68 75/189/79 115/189/112
f 57/151/73 73/150/69 91/150/93
f 67/164/77 93/164/96 96/117/114
f 83/64/48 106/64/119 105/135/115
f 64/163/76 56/50/38 108/50/116
f 83/64/48 84/63/47 107/63/118
f 77/178/83 63/153/75 100/153/109
f 82/72/52 102/72/90 107/80/118
f 66/179/84 77/187/83 116/187/91
f 86/52/40 109/52/110 108/50/116
f 60/84/57 66/183/84 117/183/120
f 72/146/71 55/167/37 110/167/92
f 71/147/72 72/146/71 90/146/121
