# Blender 4.5.4 LTS
# www.blender.org
mtllib F_RightLegBear.mtl
o Bear_Low_Poly.002
v 0.014093 -0.448455 -0.935929
v 0.057658 -0.039307 -0.193363
v 0.043983 -0.177009 -0.171872
v -0.022644 -0.299206 -0.153225
v 0.105513 0.025792 -0.123646
v -0.077502 -0.304596 -0.146412
v 0.100939 -0.045403 -0.144075
v 0.088176 -0.101906 -0.144324
v 0.042841 -0.407901 -0.096732
v 0.113236 -0.176066 -0.089300
v 0.116617 -0.067607 -0.087937
v -0.026920 -0.593894 -0.032256
v 0.113233 -0.283343 -0.076540
v -0.110730 -0.420550 -0.057485
v 0.125174 0.093578 -0.037624
v 0.132361 -0.023356 -0.009421
v 0.120673 -0.345227 -0.020412
v 0.140257 -0.198455 -0.024362
v -0.143951 -0.388919 -0.012348
v 0.040142 -0.600414 0.011641
v 0.077626 -0.486523 0.009990
v 0.109002 0.164289 0.030295
v -0.108253 -0.503816 0.048096
v -0.089121 -0.591256 0.034159
v 0.116492 -0.189464 0.075406
v 0.118850 -0.307201 0.066170
v -0.146048 -0.377344 0.050152
v 0.108104 -0.026505 0.087761
v 0.116645 0.077447 0.055517
v 0.067917 -0.588146 0.101201
v 0.070308 -0.473649 0.072050
v -0.084466 -0.562671 0.121780
v -0.077442 -0.484547 0.101563
v 0.086471 0.174329 0.105933
v -0.136291 -0.331763 0.111281
v 0.034541 -0.079056 0.154622
v 0.016414 -0.545431 0.120341
v 0.046775 -0.242004 0.152005
v -0.092254 -0.300805 0.158107
v -0.009057 -0.490595 0.118968
v 0.084721 0.068945 0.140564
v -0.087617 -0.606409 0.211829
v -0.148749 -0.227652 0.138224
v -0.029492 -0.232562 0.176643
v -0.052885 -0.611283 0.239703
v -0.102889 -0.143462 0.171461
v 0.064549 -0.600099 0.183966
v 0.003864 -0.597275 0.234209
v 0.007579 0.059648 0.195090
v -0.066144 -0.020482 0.190856
v 0.002049 -0.615134 0.241067
v -0.172189 -0.257872 0.077007
v -0.066231 -0.019509 0.191156
v 0.083163 0.195465 0.109115
v 0.105949 0.127189 -0.106175
v -0.019343 0.067219 0.204043
v -0.111832 -0.267086 -0.148890
v -0.128587 -0.278744 -0.114704
v 0.067685 0.180486 0.132247
v 0.040141 0.157402 0.180582
v 0.015431 -0.441473 -0.936104
v -0.122155 -0.122487 0.176713
v -0.175841 -0.302350 0.000313
v 0.063127 0.013155 -0.187828
v 0.104973 0.194079 0.031386
v 0.117130 0.178998 -0.040649
v 0.114549 0.182735 -0.024281
v 0.042479 -0.033562 -0.210604
v -0.177709 -0.295410 0.020657
v -0.164942 -0.310206 -0.052902
v 0.013604 -0.445007 -0.936917
v 0.014597 -0.076745 -0.201437
v -0.157380 -0.307930 -0.074322
v -0.131583 -0.147937 0.158048
v -0.162044 -0.211708 0.134770
v 0.106670 0.130023 -0.102967
v 0.011615 -0.448239 -0.936568
v -0.078377 -0.224891 -0.179192
v -0.091398 -0.242941 -0.170662
v 0.013358 0.119395 0.196359
v 0.079794 0.053330 -0.164493
v 0.089619 0.194822 0.085640
v -0.066760 -0.020547 0.190892
v -0.027021 -0.146983 -0.199352
v -0.013992 -0.126050 -0.202123
v -0.167819 -0.241318 0.095204
v -0.171358 -0.253765 0.082392
v -0.084107 -0.000171 -0.123749
v -0.096979 -0.020108 -0.119517
v -0.164465 -0.052974 0.046445
v -0.160112 -0.041225 0.055062
v -0.178528 -0.082415 0.035698
v -0.049643 0.097959 -0.045287
v -0.054472 0.075350 -0.074057
v -0.139901 -0.088501 -0.109247
v -0.145913 -0.096835 -0.105309
v -0.155346 -0.107981 -0.095258
v -0.112648 0.046355 0.067679
v -0.097551 0.070443 0.064131
v -0.072470 0.098646 0.034533
v -0.065324 0.105562 0.023854
v -0.062344 0.105265 0.013016
v -0.134294 0.006316 0.061729
v -0.134538 0.005837 0.061607
v -0.185759 -0.121057 -0.016984
v -0.183211 -0.103728 0.009031
v -0.116192 -0.052534 -0.118554
v -0.181194 -0.096085 0.017431
v -0.050834 0.099685 -0.037730
v -0.055255 0.104922 -0.012031
v -0.074574 0.021396 -0.113234
v -0.066880 0.039943 -0.102461
v -0.184897 -0.124262 -0.026376
v -0.179865 -0.127888 -0.050944
v -0.176374 -0.126838 -0.060832
v -0.110177 -0.042870 -0.119834
v -0.163082 -0.113363 -0.079475
v -0.054805 0.074041 -0.075538
v -0.085186 0.087989 0.056848
v -0.182828 -0.101831 0.011517
vn -0.5023 -0.1904 0.8435
vn 0.2627 0.6465 0.7162
vn -0.7915 -0.2091 0.5743
vn 0.5200 -0.7669 -0.3761
vn -0.1237 -0.7478 -0.6523
vn -0.1482 -0.0610 0.9871
vn -0.8225 0.3447 0.4525
vn 0.3475 0.4841 0.8031
vn 0.9062 -0.1519 0.3947
vn 0.2610 -0.5491 0.7939
vn 0.0815 -0.0816 0.9933
vn 0.4810 -0.0903 0.8721
vn -0.1205 -0.1622 0.9794
vn 0.9540 -0.2675 0.1353
vn 0.8821 0.0016 0.4711
vn 0.5255 -0.0653 0.8483
vn 0.8994 -0.1370 0.4150
vn 0.9678 -0.2513 -0.0164
vn 0.9428 -0.2669 -0.1998
vn 0.9991 0.0366 0.0197
vn 0.9564 -0.0137 -0.2919
vn 0.9185 0.0436 -0.3931
vn -0.4322 0.0898 0.8973
vn 0.1612 -0.2410 0.9571
vn -0.4098 -0.0128 0.9121
vn 0.4378 0.8920 0.1126
vn 0.3640 0.8497 0.3816
vn 0.9039 0.1131 0.4126
vn 0.8263 -0.1883 -0.5308
vn 0.5047 -0.3680 -0.7809
vn 0.5040 -0.2224 -0.8346
vn -0.6972 -0.6901 -0.1942
vn -0.9684 -0.1945 0.1559
vn -0.7417 -0.3901 -0.5455
vn 0.9009 -0.1402 0.4108
vn 0.9957 -0.0235 -0.0897
vn 0.9675 0.0924 0.2352
vn 0.9744 0.1294 0.1837
vn -0.9138 -0.3705 -0.1663
vn -0.2989 0.1834 0.9365
vn 0.4045 -0.1469 0.9027
vn -0.1967 0.2830 0.9387
vn 0.8105 -0.1576 -0.5642
vn 0.8667 -0.0328 -0.4978
vn -0.9186 -0.3163 0.2368
vn -0.6056 -0.0770 0.7920
vn -0.4424 -0.2717 -0.8547
vn -0.3311 -0.4232 -0.8434
vn -0.6850 -0.3064 -0.6610
vn 0.8819 -0.0577 0.4680
vn 0.7684 -0.0080 0.6400
vn -0.3468 -0.2325 0.9087
vn 0.1138 -0.3383 -0.9341
vn -0.3093 -0.1319 -0.9418
vn 0.9944 0.0703 -0.0787
vn -0.8176 -0.1659 0.5513
vn -0.9721 -0.0557 0.2279
vn -0.6168 -0.2555 0.7445
vn -0.6547 -0.0849 0.7511
vn -0.7705 -0.2910 0.5671
vn 0.8640 -0.0681 -0.4989
vn -0.5849 -0.1195 0.8023
vn 0.6907 -0.1414 -0.7092
vn -0.9769 -0.1887 0.1003
vn -0.9642 -0.1630 0.2093
vn 0.4232 -0.1883 -0.8862
vn 0.3184 -0.2138 -0.9235
vn 0.2213 -0.2304 -0.9476
vn 0.1911 0.0333 -0.9810
vn -0.2894 -0.0630 -0.9551
vn -0.1829 -0.1172 -0.9761
vn 0.1659 0.8149 0.5553
vn 0.5716 0.7435 -0.3470
vn 0.4787 0.6373 -0.6039
vn 0.5035 0.8594 -0.0894
vn 0.4743 0.8798 0.0310
vn 0.3077 0.2924 -0.9054
vn -0.9667 -0.2410 -0.0860
vn -0.9311 -0.2531 -0.2626
vn 0.5667 -0.0167 -0.8238
vn -0.8037 -0.2764 -0.5270
vn -0.7378 -0.1871 -0.6486
vn 0.3388 0.4275 -0.8381
vn 0.4766 0.4801 -0.7365
vn -0.1069 0.0080 -0.9942
vn -0.9401 -0.1357 0.3128
vn -0.7023 0.4074 -0.5838
vn -0.7052 0.3906 -0.5917
vn -0.9237 0.3820 -0.0278
vn -0.7986 0.6019 0.0003
vn -0.6511 0.6780 -0.3413
vn -0.6267 0.5819 -0.5183
vn -0.8546 0.4918 0.1670
vn -0.9695 0.2450 -0.0062
vn -0.9667 0.1745 -0.1871
vn -0.6772 0.7288 -0.1013
vn -0.7338 0.6693 -0.1166
vn -0.9479 0.1742 -0.2665
vn -0.8962 0.1555 -0.4156
vn -0.8799 0.4335 0.1946
vn -0.8783 0.4573 0.1394
vn -0.7336 0.5307 -0.4245
vn -0.9178 0.3355 0.2123
vn -0.8517 0.2532 -0.4587
vn -0.9743 0.2084 -0.0857
vn -0.6394 0.4270 -0.6395
vn -0.6117 0.6634 -0.4308
vn -0.7467 0.3433 -0.5697
vn 0.0568 0.6843 0.7270
vn -0.7323 0.6781 0.0625
vn -0.9192 0.3938 -0.0008
vn -0.9569 0.2577 0.1340
vn -0.6415 0.7213 -0.2613
vn -0.8670 0.2043 -0.4544
vn -0.6503 0.7273 -0.2193
vn -0.5455 0.6708 -0.5024
vn -0.6718 0.7156 -0.1913
vn -0.7568 0.3397 -0.5585
vn -0.9747 0.2200 -0.0404
vn -0.5963 0.5640 -0.5712
vt 0.029521 0.366941
vt 0.031368 0.346821
vt 0.040243 0.379435
vt 0.131825 0.946694
vt 0.204349 0.994140
vt 0.115076 0.970920
vt 0.897803 0.163768
vt 0.924332 0.138485
vt 0.915387 0.174883
vt 0.195396 0.939537
vt 0.215914 0.961472
vt 0.299918 0.025992
vt 0.303332 0.031611
vt 0.271731 0.031611
vt 0.723902 0.511081
vt 0.679718 0.471826
vt 0.735527 0.471827
vt 0.214920 0.981530
vt 0.528293 0.033336
vt 0.528296 0.056313
vt 0.498239 0.038862
vt 0.753522 0.264073
vt 0.777712 0.212042
vt 0.795874 0.267278
vt 0.766605 0.304817
vt 0.788250 0.371336
vt 0.751368 0.330527
vt 0.322295 0.287418
vt 0.291652 0.295895
vt 0.283470 0.261312
vt 0.678618 0.607419
vt 0.678786 0.607563
vt 0.678537 0.607843
vt 0.368370 0.213198
vt 0.377024 0.213224
vt 0.374765 0.220597
vt 0.890208 0.633702
vt 0.855705 0.673876
vt 0.858272 0.584957
vt 0.061933 0.576034
vt 0.045946 0.547289
vt 0.072358 0.507310
vt 0.074526 0.343035
vt 0.074526 0.379038
vt 0.802630 0.357458
vt 0.899833 0.661222
vt 0.916633 0.609450
vt 0.695580 0.564479
vt 0.722513 0.608641
vt 0.351192 0.254782
vt 0.346461 0.223423
vt 0.051838 0.498335
vt 0.783115 0.153657
vt 0.775236 0.158625
vt 0.766039 0.138746
vt 0.682779 0.645147
vt 0.697977 0.522624
vt 0.906594 0.556359
vt 0.883049 0.562266
vt 0.891366 0.542650
vt 0.028753 0.502105
vt 0.193893 0.596811
vt 0.215767 0.638133
vt 0.193893 0.646494
vt 0.931808 0.110158
vt 0.936876 0.134460
vt 0.923926 0.121635
vt 0.252317 0.203242
vt 0.285630 0.203242
vt 0.264586 0.261768
vt 0.410523 0.487469
vt 0.447767 0.508229
vt 0.410526 0.509838
vt 0.357801 0.289828
vt 0.736616 0.207535
vt 0.713090 0.178041
vt 0.741869 0.166844
vt 0.307956 0.346215
vt 0.733553 0.523323
vt 0.736377 0.557406
vt 0.957118 0.131755
vt 0.936629 0.102866
vt 0.138945 0.994140
vt 0.980627 0.177048
vt 0.955289 0.248496
vt 0.317987 0.245941
vt 0.208579 0.671819
vt 0.895093 0.138493
vt 0.800896 0.485569
vt 0.761769 0.567843
vt 0.335696 0.383922
vt 0.345009 0.344779
vt 0.512217 0.615711
vt 0.505818 0.631974
vt 0.504818 0.615712
vt 0.701760 0.527761
vt 0.688645 0.555270
vt 0.694509 0.528640
vt 0.969598 0.987228
vt 0.969598 0.927630
vt 0.991316 0.942984
vt 0.863455 0.752379
vt 0.081053 0.563241
vt 0.076380 0.599475
vt 0.076380 0.517473
vt 0.837045 0.371963
vt 0.896281 0.594511
vt 0.302231 0.392491
vt 0.685145 0.566620
vt 0.868697 0.534537
vt 0.382095 0.257238
vt 0.028043 0.468045
vt 0.004206 0.463798
vt 0.028329 0.578401
vt 0.981917 0.506712
vt 0.988986 0.476786
vt 0.988986 0.540746
vt 0.049063 0.323853
vt 0.272501 0.283351
vt 0.923290 0.187198
vt 0.426756 0.616850
vt 0.426943 0.618147
vt 0.426054 0.617958
vt 0.861058 0.530419
vt 0.851801 0.545812
vt 0.980626 0.088859
vt 0.961836 0.048407
vt 0.971270 0.017332
vt 0.987854 0.051681
vt 0.995110 0.107669
vt 0.903221 0.519557
vt 0.002343 0.603088
vt 0.780164 0.470069
vt 0.955132 0.074166
vt 0.610136 0.002545
vt 0.630518 0.009594
vt 0.610264 0.009589
vt 0.825358 0.428457
vt 0.801931 0.427793
vt 0.801927 0.388182
vt 0.709888 0.567742
vt 0.739374 0.567749
vt 0.726903 0.609939
vt 0.672881 0.642618
vt 0.835455 0.743977
vt 0.820289 0.476736
vt 0.729316 0.130191
vt 0.719328 0.136951
vt 0.718062 0.129291
vt 0.321273 0.216121
vt 0.296232 0.227767
vt 0.327451 0.215324
vt 0.348402 0.212952
vt 0.875854 0.516660
vt 0.035979 0.467990
vt 0.055694 0.465371
vt 0.463329 0.740488
vt 0.461999 0.740522
vt 0.460905 0.739505
vt 0.063079 0.463010
vt 0.688387 0.222366
vt 0.723694 0.205825
vt 0.710673 0.222366
vt 0.916844 0.131114
vt 0.889127 0.505159
vt 0.915783 0.485377
vt 0.294929 0.228444
vt 0.959737 0.066894
vt 0.988596 0.016567
vt 0.994259 0.019393
vt 0.002434 0.496455
vt 0.839601 0.562400
vt 0.750510 0.129529
vt 0.001876 0.463267
vt 0.704276 0.172176
s 1
usemtl Bear_Tris_Material
f 45/1/1 48/2/2 42/3/3
f 20/4/4 42/5/3 12/6/5
f 40/7/6 32/8/7 37/9/8
f 20/4/4 47/10/9 51/11/10
f 48/12/2 51/13/10 47/14/9
f 44/15/11 36/16/12 46/17/13
f 51/11/10 45/18/1 20/4/4
f 30/19/14 37/20/8 47/21/9
f 25/22/15 36/23/12 38/24/16
f 26/25/17 21/26/18 17/27/19
f 16/28/20 11/29/21 5/30/22
f 83/31/23 50/32/24 53/33/25
f 82/34/26 54/35/27 34/36/28
f 13/37/29 9/38/30 3/39/31
f 24/40/32 23/41/33 14/42/34
f 48/2/2 37/43/8 32/44/7
f 31/45/35 21/26/18 26/25/17
f 17/46/19 13/37/29 18/47/36
f 46/48/13 36/49/12 50/32/24
f 29/50/37 22/51/38 34/36/28
f 14/42/34 23/41/33 19/52/39
f 56/53/40 49/54/41 80/55/42
f 50/32/24 36/49/12 49/56/41
f 38/57/16 36/16/12 44/15/11
f 11/58/21 8/59/43 7/60/44
f 23/41/33 27/61/45 19/52/39
f 27/62/45 23/63/33 33/64/46
f 79/65/47 6/66/48 57/67/49
f 12/68/5 24/69/32 14/70/34
f 30/71/14 31/72/35 37/73/8
f 16/28/20 29/50/37 28/74/50
f 28/75/50 29/76/37 41/77/51
f 18/78/36 11/29/21 16/28/20
f 39/79/52 44/80/11 46/48/13
f 4/81/53 79/65/47 78/82/54
f 24/83/32 12/6/5 42/5/3
f 9/84/30 12/85/5 4/81/53
f 15/86/55 29/50/37 16/28/20
f 33/64/46 23/63/33 32/87/7
f 32/8/7 40/7/6 33/88/46
f 44/80/11 39/79/52 40/89/6
f 40/89/6 38/90/16 44/80/11
f 49/54/41 36/23/12 41/77/51
f 15/86/55 16/28/20 5/30/22
f 26/91/17 18/78/36 25/92/15
f 75/93/56 86/94/57 43/95/58
f 43/96/58 74/97/59 75/98/56
f 33/99/46 35/100/60 27/101/45
f 17/46/19 20/102/4 9/38/30
f 21/103/18 20/104/4 17/105/19
f 38/24/16 37/106/8 26/25/17
f 31/45/35 26/25/17 37/106/8
f 10/107/61 3/39/31 8/59/43
f 26/91/17 17/108/19 18/78/36
f 74/97/59 46/48/13 62/109/62
f 7/60/44 8/59/43 2/110/63
f 8/59/43 3/39/31 2/110/63
f 29/50/37 34/36/28 41/111/51
f 28/75/50 41/77/51 36/23/12
f 69/112/64 27/61/45 52/113/65
f 46/48/13 83/31/23 62/109/62
f 39/79/52 46/48/13 43/96/58
f 32/114/7 23/41/33 24/40/32
f 30/115/14 47/116/9 20/117/4
f 48/2/2 47/118/9 37/43/8
f 5/30/22 11/29/21 7/119/44
f 10/107/61 8/59/43 11/58/21
f 12/85/5 14/120/34 6/66/48
f 4/81/53 12/85/5 6/66/48
f 71/121/66 1/122/67 77/123/68
f 68/124/69 2/110/63 72/125/70
f 3/126/31 9/84/30 4/81/53
f 39/127/52 43/128/58 35/129/60
f 39/127/52 35/129/60 33/130/46
f 2/110/63 5/131/22 7/60/44
f 13/37/29 3/39/31 10/107/61
f 25/92/15 18/78/36 16/28/20
f 28/74/50 25/92/15 16/28/20
f 42/132/3 32/114/7 24/40/32
f 42/3/3 48/2/2 32/44/7
f 33/133/46 40/89/6 39/79/52
f 84/134/71 4/81/53 78/82/54
f 48/135/2 45/136/1 51/137/10
f 21/138/18 31/139/35 30/140/14
f 30/141/14 20/142/4 21/143/18
f 28/75/50 36/23/12 25/22/15
f 25/22/15 38/24/16 26/25/17
f 10/107/61 11/58/21 18/47/36
f 53/33/25 49/56/41 56/144/40
f 42/5/3 20/4/4 45/18/1
f 9/38/30 20/102/4 12/145/5
f 38/90/16 40/89/6 37/146/8
f 59/147/72 34/148/28 54/149/27
f 17/46/19 9/38/30 13/37/29
f 66/150/73 15/86/55 76/151/74
f 15/86/55 22/51/38 29/50/37
f 18/47/36 13/37/29 10/107/61
f 15/86/55 67/152/75 22/51/38
f 22/51/38 67/152/75 65/153/76
f 2/110/63 68/124/69 64/154/77
f 27/61/45 63/155/78 19/52/39
f 19/52/39 63/155/78 70/156/79
f 1/157/67 71/158/66 61/159/80
f 19/52/39 73/160/81 14/42/34
f 59/147/72 41/77/51 34/148/28
f 6/161/48 73/162/81 58/163/82
f 6/66/48 58/164/82 57/67/49
f 41/77/51 80/55/42 49/54/41
f 5/131/22 64/154/77 81/165/83
f 5/131/22 81/165/83 55/166/84
f 15/86/55 55/167/84 76/151/74
f 22/51/38 82/34/26 34/36/28
f 3/126/31 84/134/71 85/168/85
f 3/39/31 72/125/70 2/110/63
f 35/129/60 86/169/57 87/170/86
f 35/171/60 52/113/65 27/61/45
f 85/168/85 107/134/87 116/168/88
f 90/97/89 99/55/90 93/150/91
f 64/154/77 112/165/92 81/165/83
f 56/53/40 99/55/90 98/53/93
f 86/169/57 120/170/94 87/170/86
f 69/112/64 113/155/95 63/155/78
f 59/147/72 101/149/96 100/147/97
f 63/155/78 114/156/98 70/156/79
f 82/34/26 101/35/96 54/35/27
f 73/160/81 114/156/98 115/160/99
f 53/33/25 98/144/93 103/33/100
f 83/31/23 103/33/100 104/31/101
f 72/125/70 116/172/88 89/125/102
f 83/31/23 91/109/103 62/109/62
f 58/163/82 115/162/99 117/163/104
f 52/113/65 105/112/105 69/112/64
f 72/125/70 88/124/106 68/124/69
f 55/167/84 94/151/107 76/151/74
f 84/134/71 95/82/108 107/134/87
f 74/97/59 91/109/103 90/97/89
f 60/173/109 100/147/97 119/173/110
f 75/93/56 108/94/111 86/94/57
f 74/97/59 92/98/112 75/98/56
f 80/55/42 119/173/110 99/55/90
f 66/150/73 109/152/113 67/152/75
f 76/151/74 93/150/91 66/150/73
f 58/164/82 97/67/114 57/67/49
f 67/152/75 110/153/115 65/153/76
f 81/165/83 118/166/116 55/166/84
f 65/153/76 102/34/117 82/34/26
f 78/82/54 96/65/118 95/82/108
f 87/174/86 106/113/119 52/113/65
f 64/154/77 88/124/106 111/154/120
f 79/65/47 97/67/114 96/65/118
f 4/81/53 6/66/48 79/65/47
f 43/96/58 46/48/13 74/97/59
f 46/48/13 50/32/24 83/31/23
f 53/33/25 50/32/24 49/56/41
f 15/86/55 66/150/73 67/152/75
f 27/61/45 69/112/64 63/155/78
f 19/52/39 70/156/79 73/160/81
f 59/147/72 60/173/109 41/77/51
f 6/161/48 14/175/34 73/162/81
f 41/77/51 60/173/109 80/55/42
f 5/131/22 2/110/63 64/154/77
f 15/86/55 5/30/22 55/167/84
f 22/51/38 65/153/76 82/34/26
f 3/126/31 4/81/53 84/134/71
f 3/39/31 85/172/85 72/125/70
f 35/129/60 43/128/58 86/169/57
f 35/171/60 87/174/86 52/113/65
f 85/168/85 84/134/71 107/134/87
f 111/154/120 88/124/106 89/125/102
f 89/125/102 116/168/88 107/134/87
f 107/134/87 95/82/108 96/65/118
f 96/65/118 97/67/114 117/163/104
f 117/163/104 115/160/99 114/156/98
f 114/156/98 113/155/95 105/112/105
f 105/112/105 106/113/119 120/170/94
f 108/94/111 92/98/112 90/97/89
f 105/112/105 120/170/94 108/94/111
f 117/163/104 114/156/98 105/112/105
f 107/134/87 96/65/118 117/163/104
f 111/154/120 89/125/102 107/134/87
f 118/166/116 112/165/92 111/154/120
f 93/150/91 94/151/107 118/166/116
f 110/153/115 109/152/113 93/150/91
f 100/147/97 101/35/96 102/34/117
f 102/34/117 110/153/115 93/150/91
f 93/150/91 118/166/116 111/154/120
f 111/154/120 107/134/87 117/163/104
f 117/163/104 105/112/105 108/94/111
f 90/97/89 91/109/103 104/31/101
f 117/163/104 108/94/111 90/97/89
f 93/150/91 111/154/120 117/163/104
f 100/147/97 102/34/117 93/150/91
f 99/55/90 119/173/110 100/147/97
f 103/33/100 98/53/93 99/55/90
f 90/97/89 104/31/101 103/33/100
f 93/150/91 117/163/104 90/97/89
f 99/55/90 100/147/97 93/150/91
f 90/97/89 103/33/100 99/55/90
f 64/154/77 111/154/120 112/165/92
f 56/53/40 80/55/42 99/55/90
f 86/169/57 108/169/111 120/170/94
f 69/112/64 105/112/105 113/155/95
f 59/147/72 54/149/27 101/149/96
f 63/155/78 113/155/95 114/156/98
f 82/34/26 102/34/117 101/35/96
f 73/160/81 70/156/79 114/156/98
f 53/33/25 56/144/40 98/144/93
f 83/31/23 53/33/25 103/33/100
f 72/125/70 85/172/85 116/172/88
f 83/31/23 104/31/101 91/109/103
f 58/163/82 73/162/81 115/162/99
f 52/113/65 106/113/119 105/112/105
f 72/125/70 89/125/102 88/124/106
f 55/167/84 118/167/116 94/151/107
f 84/134/71 78/82/54 95/82/108
f 74/97/59 62/109/62 91/109/103
f 60/173/109 59/147/72 100/147/97
f 75/93/56 92/93/112 108/94/111
f 74/97/59 90/97/89 92/98/112
f 80/55/42 60/173/109 119/173/110
f 66/150/73 93/150/91 109/152/113
f 76/151/74 94/151/107 93/150/91
f 58/164/82 117/164/104 97/67/114
f 67/152/75 109/152/113 110/153/115
f 81/165/83 112/165/92 118/166/116
f 65/153/76 110/153/115 102/34/117
f 78/82/54 79/65/47 96/65/118
f 87/174/86 120/174/94 106/113/119
f 64/154/77 68/124/69 88/124/106
f 79/65/47 57/67/49 97/67/114
