# Blender 4.5.4 LTS
# www.blender.org
mtllib HeadBear.mtl
o Bear_Low_Poly
v -0.107932 0.257694 0.010578
v 0.112121 0.255634 0.002510
v -0.271857 -0.036458 0.008107
v -0.001020 0.276863 0.007474
v 0.018798 -0.294652 0.011540
v -0.104973 -0.258655 0.029022
v -0.231610 0.150479 0.089582
v 0.255299 -0.110363 0.028666
v -0.173063 -0.188472 0.058533
v 0.087081 -0.232055 0.101420
v -0.199407 -0.132088 0.122188
v 0.230197 0.158304 0.117827
v -0.250981 0.079679 0.091335
v -0.063731 0.281539 0.228157
v 0.252713 0.093626 0.079995
v -0.239776 -0.071377 0.120146
v 0.165738 0.233236 0.108953
v 0.174657 -0.147112 0.157110
v -0.250794 -0.094551 0.059878
v 0.047649 0.284714 0.164603
v 0.238798 -0.009307 0.174357
v -0.176788 0.222616 0.112569
v -0.102187 -0.159943 0.239449
v -0.153794 0.264186 0.163606
v -0.244663 0.003090 0.148657
v -0.010076 -0.216131 0.166134
v -0.232441 0.161777 0.181988
v 0.200501 0.205396 0.151173
v 0.149409 0.263361 0.162883
v 0.002664 -0.172459 0.272763
v -0.239989 0.042932 0.200243
v 0.233688 0.156283 0.199066
v 0.231987 0.038058 0.253568
v -0.266395 0.219878 0.194993
v 0.272229 0.221578 0.197600
v 0.110742 -0.144483 0.263764
v 0.251986 0.284043 0.184288
v 0.187498 -0.075909 0.271921
v -0.260881 0.275328 0.203207
v -0.238478 0.291151 0.183719
v -0.187838 0.222025 0.152706
v 0.273669 0.243068 0.205672
v 0.202299 0.297976 0.193463
v -0.190672 0.294149 0.197901
v -0.187875 -0.062333 0.280541
v -0.143313 0.246328 0.226578
v 0.149616 0.232588 0.231207
v -0.206981 0.167981 0.238980
v 0.060042 0.267840 0.252491
v 0.173768 -0.042850 0.322421
v -0.219087 0.045131 0.280074
v -0.090798 0.173178 0.362021
v 0.201747 0.158119 0.243947
v 0.120451 0.167345 0.341627
v -0.172141 0.119826 0.324402
v -0.029373 0.148484 0.409868
v -0.161414 0.008463 0.358206
v -0.008254 -0.132079 0.353045
v 0.059703 -0.084897 0.384001
v 0.137479 0.081089 0.374432
v -0.044391 -0.080621 0.425930
v -0.105380 0.120354 0.390463
v 0.006593 -0.101652 0.459720
v 0.089704 -0.019869 0.392061
v 0.058943 0.141295 0.407644
v -0.078802 -0.061523 0.387388
v 0.021819 -0.092176 0.431070
v 0.064160 0.035392 0.443232
v 0.037449 -0.082655 0.480022
v 0.004746 0.073395 0.452188
v -0.057675 0.029264 0.454498
v -0.031525 -0.079274 0.485366
v -0.037828 0.008469 0.526391
v 0.030795 -0.004942 0.542701
v -0.018411 -0.030316 0.543036
v -0.133887 -0.245063 0.005098
v -0.130636 0.243869 -0.005180
v 0.116396 -0.257037 0.005350
v 0.129888 0.243142 -0.005164
v -0.003362 0.278859 -0.005915
v -0.102563 0.261524 -0.005551
v -0.245785 -0.123628 0.002546
v -0.239752 -0.130907 0.002699
v 0.265405 -0.121239 0.002495
v 0.265755 -0.093340 0.001909
v -0.262519 -0.068714 0.001391
v -0.273960 -0.037681 0.000739
v 0.013099 -0.299166 0.006236
v -0.099284 -0.282864 0.005893
v -0.122473 -0.275452 0.005737
v 0.278872 0.040886 -0.000913
v 0.229326 0.152729 -0.003264
v 0.150101 -0.243009 0.005055
v 0.148629 -0.243933 0.005075
v 0.002917 0.278618 -0.005910
v -0.110281 0.258540 -0.005488
v 0.221061 0.175526 -0.003743
v 0.204635 0.194518 -0.004142
v 0.113585 0.256004 -0.005435
v 0.109004 0.257751 -0.005471
v 0.021895 -0.299695 0.006247
v -0.184359 0.212891 -0.004528
v -0.229786 -0.142688 0.002946
v 0.273029 -0.023981 0.000451
v 0.280217 0.026798 -0.000617
v 0.242048 -0.138638 0.002861
v 0.156709 -0.235405 0.004895
v -0.183282 -0.204052 0.004236
v -0.260954 0.097876 -0.002111
v -0.240003 0.149140 -0.003188
v -0.200335 0.191853 -0.004086
v -0.271552 0.059224 -0.001298
v -0.273370 -0.032025 0.000620
v -0.173029 -0.049201 -0.172626
v -0.180430 -0.029126 -0.173048
v 0.005262 -0.198275 -0.169493
v -0.067436 -0.187730 -0.169714
v -0.082436 -0.182935 -0.169815
v 0.093885 -0.161949 -0.170256
v 0.092933 -0.162546 -0.170244
v -0.074550 0.162492 -0.177076
v -0.069557 0.164422 -0.177117
v 0.080810 0.152531 -0.176867
v 0.129162 0.121077 -0.176206
v 0.010952 -0.198617 -0.169485
v -0.087717 0.153001 -0.176877
v 0.173405 -0.020264 -0.173234
v 0.168699 -0.065131 -0.172291
v 0.177184 0.021697 -0.174117
v 0.178055 0.012584 -0.173925
v 0.168473 -0.083178 -0.171912
v 0.153364 -0.094433 -0.171675
v 0.098160 -0.157029 -0.170360
v -0.089819 -0.163277 -0.170228
v -0.121772 -0.136748 -0.170786
v -0.151854 -0.097053 -0.171620
v -0.172016 0.058562 -0.174892
v -0.158463 0.091724 -0.175589
v -0.132804 0.119354 -0.176169
v -0.180048 -0.025468 -0.173125
v -0.005386 0.175636 -0.177353
v -0.001324 0.175480 -0.177349
v -0.162204 -0.084724 -0.171879
v -0.158301 -0.089432 -0.171781
v 0.145134 0.094045 -0.175637
v 0.139788 0.108792 -0.175947
v 0.072082 -0.171022 -0.170065
v 0.067301 0.161982 -0.177065
v 0.070264 0.160851 -0.177042
v -0.122469 0.132963 -0.176455
v -0.178872 0.033559 -0.174366
vn -0.6557 -0.1614 0.7375
vn -0.9004 -0.0180 0.4348
vn -0.7556 -0.4827 0.4428
vn 0.8734 0.2714 0.4043
vn 0.6918 0.2505 0.6772
vn 0.9876 -0.0847 0.1323
vn -0.7552 0.5975 -0.2697
vn -0.8272 0.5217 -0.2086
vn -0.9008 0.4320 0.0446
vn -0.9018 -0.3207 0.2897
vn -0.7199 -0.6205 0.3109
vn -0.7321 0.3401 0.5902
vn -0.5603 0.3180 0.7648
vn -0.4024 0.6494 0.6452
vn -0.2591 0.7465 0.6129
vn -0.4370 -0.7900 0.4300
vn -0.6710 -0.6746 0.3078
vn -0.0752 -0.8897 0.4502
vn -0.6616 -0.4789 0.5770
vn -0.8044 0.1845 0.5648
vn -0.1305 0.6101 0.7815
vn -0.4006 -0.7448 0.5337
vn -0.0264 -0.9021 0.4307
vn 0.5123 0.1332 0.8484
vn 0.7472 0.1475 0.6480
vn 0.0517 0.5904 0.8055
vn 0.4353 -0.7826 0.4450
vn 0.3323 -0.8485 0.4119
vn 0.6106 -0.6379 0.4694
vn 0.5430 -0.7274 0.4196
vn 0.5600 -0.1803 0.8086
vn 0.6996 0.1431 0.7001
vn 0.5577 0.5645 0.6086
vn 0.9217 -0.0223 0.3873
vn 0.7414 -0.6595 -0.1239
vn 0.7298 -0.6754 -0.1061
vn 0.8620 -0.3731 0.3432
vn 0.9070 0.4210 0.0096
vn -0.9785 -0.0466 0.2010
vn -0.8955 -0.3863 0.2211
vn -0.7102 -0.6993 -0.0817
vn -0.7621 -0.6329 -0.1366
vn -0.3387 -0.3020 0.8911
vn -0.6646 0.3671 0.6508
vn 0.0329 -0.9073 0.4191
vn 0.3268 0.5452 0.7720
vn 0.6145 -0.2976 0.7306
vn 0.7088 -0.3348 0.6209
vn 0.7632 -0.5137 0.3920
vn -0.7323 0.6656 -0.1437
vn -0.9996 0.0098 -0.0281
vn -0.6713 0.4419 -0.5951
vn -0.3617 0.9322 0.0137
vn -0.1686 0.9427 -0.2880
vn -0.1670 0.9360 0.3099
vn 0.3060 0.7020 0.6431
vn 0.9433 -0.3205 -0.0861
vn -0.9860 -0.1145 -0.1213
vn -0.7468 0.1620 0.6450
vn -0.8092 0.5148 0.2831
vn -0.4801 0.8523 -0.2075
vn -0.5036 0.7953 -0.3374
vn 0.6181 0.7603 -0.1999
vn 0.2065 0.9647 -0.1636
vn -0.0678 0.9861 0.1517
vn 0.2032 0.9516 0.2308
vn 0.9637 0.2344 0.1276
vn 0.9894 -0.0021 -0.1452
vn 0.9592 0.2627 -0.1043
vn -0.9714 -0.0976 0.2166
vn 0.0645 -0.7963 0.6014
vn -0.1197 -0.9844 0.1289
vn -0.1934 -0.9733 0.1234
vn 0.1799 -0.9691 0.1685
vn 0.7314 0.4298 -0.5295
vn 0.6994 0.7016 -0.1363
vn 0.9517 -0.2187 0.2157
vn -0.9830 -0.1579 -0.0942
vn -0.8788 -0.3873 -0.2787
vn -0.9686 -0.1079 0.2240
vn -0.9333 0.3201 -0.1626
vn 0.6970 -0.6369 0.3294
vn 0.8878 -0.4591 0.0328
vn -0.9879 0.0537 -0.1455
vn -0.9697 0.1699 0.1754
vn -0.4484 0.7967 -0.4052
vn -0.6937 -0.6164 0.3727
vn 0.2000 0.8798 0.4312
vn 0.1410 -0.1742 0.9746
vn -0.5389 -0.7517 0.3803
vn 0.1092 0.9937 0.0264
vn 0.6123 -0.7905 -0.0115
vn 0.4873 -0.8714 -0.0561
vn -0.6662 -0.7337 0.1335
vn 0.3888 0.9213 0.0089
vn 0.4550 0.8120 -0.3657
vn 0.6112 0.7426 -0.2737
vn 0.9789 -0.0880 -0.1843
vn 0.9949 -0.0603 -0.0804
vn -0.2735 0.9428 -0.1908
vn 0.0022 0.9990 0.0442
vn -0.7952 -0.5864 -0.1542
vn -0.7606 -0.6408 -0.1040
vn -0.8769 -0.4732 -0.0852
vn 0.8988 0.3352 -0.2826
vn 0.1005 0.9778 -0.1837
vn -0.0744 0.9812 -0.1782
vn 0.8338 0.5002 -0.2336
vn 0.4898 0.8503 -0.1929
vn 0.2718 0.9472 -0.1698
vn 0.6109 -0.7801 -0.1352
vn -0.9812 0.1135 -0.1558
vn -0.0421 0.5125 -0.8577
vn 0.4782 -0.0480 -0.8769
vn 0.3914 -0.3574 -0.8480
vn 0.0354 -0.6497 -0.7594
vn 0.1060 -0.5797 -0.8079
vn -0.3672 0.3888 -0.8450
vn -0.4030 0.2940 -0.8667
vn -0.4484 -0.3365 -0.8281
vn -0.4023 -0.3538 -0.8443
vn -0.2646 0.4390 -0.8586
vn -0.1908 0.3958 -0.8983
vn 0.5344 -0.0317 -0.8446
vn 0.4458 -0.0938 -0.8902
vn -0.2088 -0.3709 -0.9049
vn -0.3852 -0.3636 -0.8482
vn 0.5838 0.1341 -0.8007
vn -0.5032 0.1210 -0.8556
vn -0.5488 0.0574 -0.8340
vn 0.5241 -0.2420 -0.8165
vn -0.5014 -0.0012 -0.8652
vn 0.4613 0.1452 -0.8753
vn 0.3824 -0.3179 -0.8676
vn 0.4799 0.2655 -0.8362
vn 0.3877 -0.3774 -0.8410
vn 0.2450 -0.4967 -0.8326
vn -0.4446 -0.4291 -0.7863
vn -0.5504 -0.1113 -0.8275
vn -0.4065 -0.0940 -0.9088
vn 0.1195 0.4872 -0.8651
vn 0.0624 0.5143 -0.8553
vn -0.3806 -0.3914 -0.8378
vn -0.0524 -0.5300 -0.8464
vn 0.3781 0.4152 -0.8274
vn -0.4648 0.2652 -0.8448
vn -0.1195 -0.5362 -0.8356
vn 0.2680 0.4499 -0.8519
vn -0.1593 0.4811 -0.8620
vn 0.1844 0.3421 -0.9214
vn -0.6403 0.7214 -0.2638
vt 0.510703 0.224306
vt 0.494176 0.189919
vt 0.533797 0.194042
vt 0.250130 0.220332
vt 0.245056 0.263228
vt 0.230646 0.249185
vt 0.618532 0.426620
vt 0.639619 0.423310
vt 0.643220 0.457299
vt 0.925910 0.695114
vt 0.937079 0.753949
vt 0.910880 0.756108
vt 0.468699 0.215739
vt 0.471274 0.250022
vt 0.451093 0.247091
vt 0.419320 0.198929
vt 0.882848 0.714817
vt 0.890965 0.782006
vt 0.081961 0.270930
vt 0.083833 0.232645
vt 0.128298 0.265812
vt 0.381394 0.001799
vt 0.350471 0.028335
vt 0.314681 0.001799
vt 0.337906 0.606546
vt 0.328512 0.649453
vt 0.309654 0.605567
vt 0.006680 0.969752
vt 0.057998 0.940454
vt 0.083575 0.978699
vt 0.208565 0.373962
vt 0.172076 0.388042
vt 0.172076 0.364443
vt 0.094967 0.903474
vt 0.035444 0.903474
vt 0.693856 0.162466
vt 0.729407 0.162466
vt 0.712769 0.172092
vt 0.261409 0.317556
vt 0.279303 0.295165
vt 0.211391 0.287042
vt 0.474366 0.548060
vt 0.513863 0.572797
vt 0.517278 0.586150
vt 0.531744 0.107905
vt 0.545664 0.149840
vt 0.502300 0.102609
vt 0.972217 0.719415
vt 0.966564 0.690229
vt 0.933418 0.776993
vt 0.889497 0.802520
vt 0.916736 0.800044
vt 0.537986 0.249747
vt 0.128298 0.216020
vt 0.076271 0.628137
vt 0.056905 0.623756
vt 0.079892 0.611442
vt 0.748217 0.993390
vt 0.718819 0.991070
vt 0.726731 0.954050
vt 0.278089 0.613687
vt 0.303360 0.638975
vt 0.283714 0.654148
vt 0.244473 0.355540
vt 0.273674 0.356264
vt 0.229195 0.376661
vt 0.294688 0.326024
vt 0.212385 0.330886
vt 0.190736 0.327552
vt 0.611833 0.471332
vt 0.645970 0.491339
vt 0.616966 0.485448
vt 0.859102 0.796173
vt 0.082616 0.356116
vt 0.065085 0.300169
vt 0.096907 0.277041
vt 0.538148 0.160611
vt 0.538153 0.193737
vt 0.501107 0.170329
vt 0.242817 0.224529
vt 0.089172 0.485524
vt 0.075803 0.515053
vt 0.075803 0.469744
vt 0.579406 0.432803
vt 0.588134 0.431423
vt 0.580142 0.438666
vt 0.307009 0.531841
vt 0.337686 0.537618
vt 0.328458 0.585916
vt 0.399791 0.162030
vt 0.434359 0.180692
vt 0.408580 0.179187
vt 0.532566 0.410047
vt 0.566796 0.369029
vt 0.566790 0.408945
vt 0.176627 0.251155
vt 0.183344 0.225225
vt 0.209625 0.220384
vt 0.485015 0.125567
vt 0.451988 0.147809
vt 0.452604 0.142899
vt 0.390079 0.002259
vt 0.412800 0.006595
vt 0.395511 0.031186
vt 0.961665 0.740078
vt 0.968291 0.361091
vt 0.968291 0.297076
vt 0.996420 0.334723
vt 0.120365 0.882987
vt 0.120365 0.824734
vt 0.163516 0.864063
vt 0.599196 0.598996
vt 0.554821 0.587541
vt 0.562658 0.579142
vt 0.601894 0.600745
vt 0.599682 0.602151
vt 0.289054 0.389735
vt 0.253739 0.396789
vt 0.517146 0.084236
vt 0.503561 0.067718
vt 0.524900 0.058005
vt 0.033511 0.044573
vt 0.001798 0.053897
vt 0.001798 0.010635
vt 0.180494 0.284026
vt 0.934731 0.968805
vt 0.958613 0.945423
vt 0.958613 0.991316
vt 0.958433 0.795881
vt 0.946334 0.797108
vt 0.958232 0.793140
vt 0.659048 0.420297
vt 0.448053 0.162818
vt 0.248219 0.635219
vt 0.271379 0.660796
vt 0.248228 0.663295
vt 0.180416 0.359989
vt 0.428659 0.629995
vt 0.438910 0.566298
vt 0.464949 0.607770
vt 0.787571 0.090198
vt 0.779218 0.085408
vt 0.786334 0.077451
vt 0.928831 0.442481
vt 0.929492 0.440499
vt 0.931749 0.441812
vt 0.990925 0.757422
vt 0.780328 0.176302
vt 0.808252 0.157786
vt 0.813333 0.176302
vt 0.598020 0.492803
vt 0.550163 0.472268
vt 0.584237 0.465049
vt 0.584238 0.483447
vt 0.097129 0.940440
vt 0.264103 0.548607
vt 0.572672 0.443443
vt 0.549175 0.411970
vt 0.572672 0.411882
vt 0.882689 0.004199
vt 0.894548 0.005848
vt 0.882690 0.027603
vt 0.725730 0.020110
vt 0.722240 0.001803
vt 0.750213 0.023944
vt 0.747419 0.001803
vt 0.677830 0.993358
vt 0.916655 0.004197
vt 0.767606 0.967340
vt 0.788748 0.993427
vt 0.175720 0.300552
vt 0.137589 0.300489
vt 0.142621 0.267781
vt 0.169110 0.232231
vt 0.177027 0.274612
vt 0.251689 0.599312
vt 0.251813 0.633735
vt 0.471286 0.546132
vt 0.470753 0.545785
vt 0.848644 0.644510
vt 0.827452 0.618107
vt 0.852073 0.618107
vt 0.427017 0.031186
vt 0.787089 0.159462
vt 0.554239 0.576103
vt 0.126310 0.948368
vt 0.389889 0.020166
vt 0.033936 0.385584
vt 0.062183 0.424047
vt 0.040603 0.419400
vt 0.062183 0.383252
vt 0.187731 0.523577
vt 0.187731 0.484142
vt 0.205638 0.504160
vt 0.844686 0.217717
vt 0.831542 0.195067
vt 0.844686 0.184368
vt 0.268086 0.033161
vt 0.268086 0.068220
vt 0.250537 0.059970
vt 0.163005 0.359118
vt 0.514358 0.162628
vt 0.693147 0.158865
vt 0.691787 0.114759
vt 0.720500 0.147531
vt 0.503470 0.639501
vt 0.458575 0.653213
vt 0.799058 0.001793
vt 0.786529 0.022486
vt 0.762415 0.001793
vt 0.760251 0.029639
vt 0.810411 0.021276
vt 0.841246 0.067184
vt 0.763757 0.053591
vt 0.775249 0.076205
vt 0.084446 0.362143
vt 0.081771 0.362030
vt 0.120718 0.357856
vt 0.001903 0.922303
vt 0.466525 0.047000
vt 0.940778 0.986282
vt 0.597853 0.613539
vt 0.597854 0.634933
vt 0.573109 0.616556
vt 0.682955 0.491544
vt 0.667960 0.453580
vt 0.492123 0.162484
vt 0.463048 0.001800
vt 0.487914 0.001800
vt 0.471269 0.008614
vt 0.434359 0.153381
vt 0.793943 0.019785
vt 0.429315 0.019095
vt 0.209625 0.266272
vt 0.575448 0.453580
vt 0.584222 0.462262
vt 0.569861 0.463522
vt 0.024625 0.098135
vt 0.001796 0.106690
vt 0.001796 0.086830
vt 0.447907 0.185023
vt 0.243258 0.035588
vt 0.056905 0.582449
vt 0.922109 0.799567
vt 0.925411 0.799272
vt 0.457930 0.098214
vt 0.122115 0.362816
vt 0.119813 0.362822
vt 0.458995 0.089375
vt 0.459989 0.080613
vt 0.462902 0.053383
vt 0.463634 0.046689
vt 0.163547 0.362042
vt 0.161794 0.362104
vt 0.620361 0.632170
vt 0.460488 0.538950
vt 0.754869 0.037110
vt 0.868752 0.804211
vt 0.990925 0.792128
vt 0.960267 0.795663
vt 0.608931 0.428123
vt 0.672550 0.418213
vt 0.685637 0.158864
vt 0.428724 0.520130
s 1
usemtl Bear_Tris_Material
f 57/1/1 51/2/2 45/3/3
f 42/4/4 53/5/5 32/6/6
f 111/7/7 110/8/8 7/9/9
f 45/10/3 16/11/10 11/12/11
f 55/13/12 57/1/1 62/14/13
f 55/13/12 52/15/14 46/16/15
f 23/17/16 11/12/11 9/18/17
f 58/19/18 66/20/19 23/21/16
f 66/22/19 71/23/20 62/24/13
f 62/25/13 71/26/20 56/27/21
f 6/28/22 26/29/23 23/30/16
f 74/31/24 68/32/25 70/33/26
f 36/34/27 26/29/23 10/35/28
f 59/36/29 69/37/30 67/38/31
f 60/39/32 53/5/5 54/40/33
f 33/41/34 53/5/5 60/39/32
f 107/42/35 106/43/36 8/44/37
f 32/45/6 33/46/34 12/47/38
f 31/48/39 45/10/3 51/49/2
f 11/12/11 16/11/10 19/50/40
f 108/51/41 9/18/17 103/52/42
f 62/14/13 52/15/14 55/13/12
f 45/10/3 11/12/11 23/17/16
f 45/3/3 66/53/19 57/1/1
f 23/21/16 66/20/19 45/54/3
f 75/55/43 74/56/24 73/57/44
f 58/58/18 30/59/45 36/60/27
f 65/61/46 70/62/26 68/63/25
f 64/64/47 68/65/25 59/66/29
f 60/39/32 65/67/46 68/65/25
f 50/68/48 59/66/29 38/69/49
f 22/70/50 27/71/51 41/72/52
f 9/18/17 6/73/22 23/17/16
f 1/74/53 24/75/54 14/76/55
f 53/77/5 47/78/56 54/79/33
f 60/39/32 50/68/48 33/41/34
f 42/4/4 32/6/6 35/80/57
f 34/81/58 48/82/59 39/83/60
f 96/84/61 77/85/62 1/86/53
f 14/87/55 46/88/15 52/89/14
f 56/27/21 52/89/14 62/25/13
f 37/90/63 29/91/64 43/92/65
f 7/93/9 31/94/39 27/95/51
f 46/96/15 44/97/66 39/98/60
f 15/99/67 105/100/68 91/101/69
f 27/102/51 34/103/58 41/104/52
f 45/10/3 25/105/70 16/11/10
f 66/106/19 62/107/13 57/108/1
f 56/27/21 14/87/55 52/89/14
f 5/109/71 26/110/23 6/111/22
f 88/112/72 6/113/22 89/114/73
f 88/112/72 101/115/74 5/116/71
f 68/65/25 74/117/24 69/118/30
f 50/68/48 60/39/32 64/64/47
f 28/119/75 17/120/76 29/121/64
f 47/122/56 53/123/5 42/124/4
f 21/125/77 33/41/34 38/69/49
f 43/126/65 47/127/56 42/128/4
f 87/129/78 86/130/79 3/131/80
f 110/8/8 109/132/81 7/9/9
f 27/133/51 51/2/2 55/13/12
f 14/134/55 24/135/54 46/136/15
f 36/137/27 38/69/49 59/66/29
f 36/138/27 10/139/28 18/140/82
f 106/141/36 84/142/83 8/143/37
f 113/144/84 87/145/78 3/146/80
f 25/105/70 13/147/85 3/131/80
f 3/131/80 16/11/10 25/105/70
f 45/10/3 31/48/39 25/105/70
f 40/148/86 24/149/54 41/150/52
f 24/151/54 22/70/50 41/72/52
f 58/152/18 61/153/87 66/154/19
f 26/29/23 30/155/45 23/30/16
f 49/156/88 14/87/55 56/27/21
f 58/157/18 63/158/89 61/159/87
f 63/160/89 67/161/31 61/162/87
f 67/163/31 69/164/30 61/165/87
f 72/166/90 61/165/87 69/164/30
f 30/59/45 26/167/23 36/60/27
f 59/168/29 67/161/31 63/160/89
f 59/169/29 63/170/89 58/58/18
f 65/61/46 49/156/88 56/27/21
f 36/60/27 59/169/29 58/58/18
f 29/171/64 20/172/91 49/173/88
f 50/68/48 64/64/47 59/66/29
f 54/174/33 47/175/56 49/173/88
f 54/176/33 65/61/46 60/177/32
f 60/39/32 68/65/25 64/64/47
f 93/178/92 10/139/28 94/179/93
f 47/180/56 43/181/65 29/182/64
f 19/50/40 16/11/10 3/131/80
f 40/183/86 41/104/52 34/103/58
f 22/70/50 7/9/9 27/71/51
f 55/13/12 51/2/2 57/1/1
f 44/184/66 24/149/54 40/148/86
f 90/185/94 89/114/73 6/113/22
f 58/186/18 23/30/16 30/155/45
f 61/187/87 71/23/20 66/22/19
f 73/188/44 61/189/87 72/190/90
f 73/188/44 71/191/20 61/189/87
f 73/192/44 70/193/26 71/194/20
f 72/195/90 75/196/43 73/197/44
f 69/198/30 74/199/24 75/200/43
f 59/66/29 68/65/25 69/118/30
f 2/201/95 20/172/91 29/171/64
f 28/119/75 12/47/38 17/120/76
f 15/99/67 12/47/38 33/46/34
f 33/46/34 21/202/77 15/99/67
f 24/151/54 1/86/53 22/70/50
f 56/27/21 70/62/26 65/61/46
f 79/203/96 17/204/76 98/205/97
f 107/42/35 18/140/82 93/178/92
f 18/140/82 21/206/77 38/207/49
f 37/208/63 35/209/57 28/210/75
f 35/209/57 32/211/6 28/210/75
f 8/143/37 21/212/77 18/213/82
f 104/214/98 8/143/37 85/215/99
f 81/216/100 96/217/61 1/74/53
f 4/218/101 1/74/53 14/76/55
f 5/219/71 10/35/28 26/29/23
f 17/120/76 2/220/95 29/121/64
f 28/119/75 32/45/6 12/47/38
f 37/221/63 43/126/65 42/128/4
f 27/222/51 48/223/59 34/224/58
f 31/225/39 7/9/9 13/226/85
f 51/2/2 27/133/51 31/227/39
f 39/228/60 44/229/66 40/230/86
f 56/27/21 71/26/20 70/62/26
f 20/172/91 2/201/95 4/218/101
f 65/61/46 54/176/33 49/156/88
f 29/91/64 37/90/63 28/231/75
f 33/41/34 32/6/6 53/5/5
f 42/232/4 35/209/57 37/208/63
f 40/183/86 34/103/58 39/233/60
f 48/234/59 46/96/15 39/98/60
f 90/235/94 6/236/22 76/237/102
f 46/238/15 24/239/54 44/240/66
f 49/173/88 20/172/91 14/76/55
f 38/207/49 36/138/27 18/140/82
f 38/69/49 33/41/34 50/68/48
f 25/105/70 31/48/39 13/147/85
f 55/13/12 48/241/59 27/133/51
f 48/241/59 55/13/12 46/16/15
f 20/172/91 4/218/101 14/76/55
f 75/200/43 72/242/90 69/198/30
f 73/57/44 74/56/24 70/243/26
f 47/175/56 29/171/64 49/173/88
f 4/218/101 81/216/100 1/74/53
f 19/50/40 83/244/103 11/12/11
f 8/143/37 84/142/83 85/215/99
f 19/50/40 86/130/79 82/245/104
f 15/99/67 91/101/69 92/246/105
f 4/218/101 95/247/106 80/248/107
f 12/47/38 92/246/105 97/249/108
f 12/47/38 98/250/97 17/120/76
f 2/220/95 79/251/96 99/252/109
f 2/201/95 99/253/109 100/254/110
f 4/218/101 100/254/110 95/247/106
f 5/116/71 101/115/74 78/255/111
f 10/139/28 78/256/111 94/179/93
f 77/85/62 22/70/50 1/86/53
f 11/12/11 103/52/42 9/18/17
f 21/212/77 104/214/98 105/257/68
f 9/18/17 76/258/102 6/73/22
f 22/70/50 111/7/7 7/9/9
f 109/132/81 13/226/85 7/9/9
f 3/131/80 112/259/112 113/260/84
f 95/247/106 141/248/113 80/248/107
f 128/215/114 133/42/115 147/255/116
f 88/112/72 125/115/117 101/115/74
f 111/7/7 150/261/118 139/7/119
f 83/244/103 143/245/120 144/244/121
f 77/85/62 121/84/122 126/85/123
f 104/214/98 130/257/124 105/257/68
f 86/130/79 143/245/120 82/245/104
f 104/214/98 128/215/114 127/214/125
f 108/51/41 134/258/126 76/258/102
f 103/52/42 144/244/121 136/52/127
f 105/100/68 129/101/128 91/101/69
f 112/262/112 137/132/129 151/262/130
f 85/215/99 131/142/131 128/215/114
f 106/141/36 131/142/131 84/142/83
f 113/260/84 151/259/130 140/260/132
f 92/246/105 129/101/128 145/246/133
f 106/43/36 133/42/115 132/43/134
f 92/246/105 146/249/135 97/249/108
f 107/42/35 119/178/136 133/42/115
f 78/256/111 120/179/137 94/179/93
f 76/237/102 118/235/138 90/235/94
f 86/130/79 115/129/139 114/130/140
f 95/247/106 148/254/141 142/247/142
f 103/52/42 135/51/143 108/51/41
f 89/114/73 116/112/144 88/112/72
f 98/250/97 146/249/135 124/250/145
f 109/132/81 138/8/146 137/132/129
f 89/114/73 118/185/138 117/114/147
f 79/251/96 149/252/148 99/252/109
f 111/7/7 138/8/146 110/8/8
f 94/179/93 119/178/136 93/178/92
f 100/254/110 149/253/148 148/254/141
f 113/144/84 115/145/139 87/145/78
f 96/217/61 122/216/149 121/217/122
f 78/255/111 125/115/117 147/255/116
f 81/216/100 141/248/113 122/216/149
f 79/203/96 124/205/145 123/203/150
f 77/85/62 150/261/118 102/261/151
f 15/99/67 21/202/77 105/100/68
f 88/112/72 5/116/71 6/113/22
f 93/178/92 18/140/82 10/139/28
f 79/203/96 2/263/95 17/204/76
f 107/42/35 8/44/37 18/140/82
f 4/218/101 80/248/107 81/216/100
f 19/50/40 82/245/104 83/244/103
f 19/50/40 3/131/80 86/130/79
f 12/47/38 15/99/67 92/246/105
f 12/47/38 97/249/108 98/250/97
f 4/218/101 2/201/95 100/254/110
f 10/139/28 5/264/71 78/256/111
f 77/85/62 102/261/151 22/70/50
f 11/12/11 83/244/103 103/52/42
f 21/212/77 8/143/37 104/214/98
f 9/18/17 108/51/41 76/258/102
f 22/70/50 102/261/151 111/7/7
f 109/132/81 112/262/112 13/226/85
f 3/131/80 13/147/85 112/259/112
f 95/247/106 142/247/142 141/248/113
f 114/130/140 115/145/139 140/260/132
f 140/260/132 151/262/130 137/132/129
f 137/132/129 138/8/146 139/7/119
f 139/7/119 150/261/118 126/85/123
f 126/85/123 121/217/122 122/216/149
f 122/216/149 141/248/113 142/247/142
f 142/247/142 148/254/141 149/252/148
f 123/203/150 124/250/145 146/249/135
f 142/247/142 149/252/148 123/203/150
f 126/85/123 122/216/149 142/247/142
f 137/132/129 139/7/119 126/85/123
f 114/130/140 140/260/132 137/132/129
f 144/244/121 143/245/120 114/130/140
f 134/258/126 135/51/143 136/52/127
f 136/52/127 144/244/121 114/130/140
f 114/130/140 137/132/129 126/85/123
f 126/85/123 142/247/142 123/203/150
f 123/203/150 146/249/135 145/246/133
f 145/246/133 129/101/128 130/257/124
f 145/246/133 130/257/124 127/214/125
f 126/85/123 123/203/150 145/246/133
f 136/52/127 114/130/140 126/85/123
f 117/114/147 118/235/138 134/258/126
f 134/258/126 136/52/127 126/85/123
f 126/85/123 145/246/133 127/214/125
f 128/215/114 131/142/131 132/43/134
f 126/85/123 127/214/125 128/215/114
f 117/114/147 134/258/126 126/85/123
f 125/115/117 116/112/144 117/114/147
f 119/178/136 120/179/137 147/255/116
f 147/255/116 125/115/117 117/114/147
f 117/114/147 126/85/123 128/215/114
f 128/215/114 132/43/134 133/42/115
f 133/42/115 119/178/136 147/255/116
f 147/255/116 117/114/147 128/215/114
f 88/112/72 116/112/144 125/115/117
f 111/7/7 102/261/151 150/261/118
f 83/244/103 82/245/104 143/245/120
f 77/85/62 96/84/61 121/84/122
f 104/214/98 127/214/125 130/257/124
f 86/130/79 114/130/140 143/245/120
f 104/214/98 85/215/99 128/215/114
f 108/51/41 135/51/143 134/258/126
f 103/52/42 83/244/103 144/244/121
f 105/100/68 130/100/124 129/101/128
f 112/262/112 109/132/81 137/132/129
f 85/215/99 84/142/83 131/142/131
f 106/141/36 132/141/134 131/142/131
f 113/260/84 112/259/112 151/259/130
f 92/246/105 91/101/69 129/101/128
f 106/43/36 107/42/35 133/42/115
f 92/246/105 145/246/133 146/249/135
f 107/42/35 93/178/92 119/178/136
f 78/256/111 147/256/116 120/179/137
f 76/237/102 134/237/126 118/235/138
f 86/130/79 87/129/78 115/129/139
f 95/247/106 100/254/110 148/254/141
f 103/52/42 136/52/127 135/51/143
f 89/114/73 117/114/147 116/112/144
f 98/250/97 97/249/108 146/249/135
f 109/132/81 110/8/8 138/8/146
f 89/114/73 90/185/94 118/185/138
f 79/251/96 123/251/150 149/252/148
f 111/7/7 139/7/119 138/8/146
f 94/179/93 120/179/137 119/178/136
f 100/254/110 99/253/109 149/253/148
f 113/144/84 140/144/132 115/145/139
f 96/217/61 81/216/100 122/216/149
f 78/255/111 101/115/74 125/115/117
f 81/216/100 80/248/107 141/248/113
f 79/203/96 98/205/97 124/205/145
f 77/85/62 126/85/123 150/261/118
